<?xml version="1.0" encoding="utf-8"?>
<!-- Generator: Adobe Illustrator 21.1.0, SVG Export Plug-In . SVG Version: 6.00 Build 0)  -->
<svg version="1.1" id="bike" xmlns="http://www.w3.org/2000/svg" xmlns:xlink="http://www.w3.org/1999/xlink" x="0px" y="0px"
	 viewBox="0 0 307 437.9" style="enable-background:new 0 0 307 437.9;" xml:space="preserve">
<style type="text/css">
	.st0{fill:#2A1CFF;}
	.st1{fill:#1A1A1E;}
	.st2{fill:#313138;}
	.st3{fill:#0000BC;}
	.st4{fill:#C0FF32;}
	.st5{fill:#2E2EFF;}
	.st6{fill:#1010E5;}
	.st7{fill:#303035;}
	.st8{fill:#56565E;}
	.st9{fill:#8F8F9E;}
</style>
<ellipse id="rear_tyre" cx="154.5" cy="332.7" rx="56.5" ry="105.2"/>
<g id="rear">
	<ellipse class="st0" cx="154.5" cy="269.4" rx="62.5" ry="136.5"/>
	<ellipse class="st1" cx="154.5" cy="262.9" rx="50.5" ry="130"/>
	<path class="st2" d="M188.5,286.9c31.1,48.2-15.3,106-34.1,106s-66-58.4-34.1-106c34.5-51.4,15.3-106,34.1-106
		S154.8,234.7,188.5,286.9z"/>
	<path class="st3" d="M154.5,310.4c-18.1,0-34.9-7.1-48.8-19.3c5.7,52.9,25.4,91.8,48.8,91.8s43.1-39,48.8-91.8
		C189.4,303.3,172.6,310.4,154.5,310.4z"/>
	<path class="st4" d="M154.5,320.4c-18.1,0-34.9-7.1-48.8-19.3c5.7,52.9,25.4,91.8,48.8,91.8s43.1-39,48.8-91.8
		C189.4,313.3,172.6,320.4,154.5,320.4z"/>
	<path class="st5" d="M154.5,331.4c-15.4,0-29.7-6.1-41.5-16.5c4.9,45,21.6,78.2,41.5,78.2s36.7-33.2,41.5-78.2
		C184.2,325.3,169.9,331.4,154.5,331.4z"/>
</g>
<g id="front">
	
		<ellipse transform="matrix(1 -2.558959e-03 2.558959e-03 1 -0.311 0.3956)" class="st6" cx="154.5" cy="121.7" rx="87.5" ry="113.8"/>
	<ellipse transform="matrix(1 -2.558959e-03 2.558959e-03 1 -0.4114 0.396)" class="st6" cx="154.6" cy="161" rx="69.5" ry="108"/>
	<ellipse transform="matrix(1 -2.558963e-03 2.558963e-03 1 -0.3371 0.3957)" cx="154.5" cy="131.9" rx="69.5" ry="79"/>
	
		<ellipse transform="matrix(1 -2.558961e-03 2.558961e-03 1 -0.3948 0.396)" class="st4" cx="154.5" cy="154.5" rx="56.5" ry="102.5"/>
	<ellipse transform="matrix(1 -2.559087e-03 2.559087e-03 1 -0.3782 0.3959)" class="st3" cx="154.5" cy="148" rx="52.5" ry="96"/>
	<path class="st6" d="M193,147.9c-0.1-22,19-42.3,14-58.5C199.9,66.6,166.7,52,154.3,52C141.8,52,109,64.9,102,87.9
		c-4.9,16.2,14,38.3,14,60.2c0.1,53,17.5,96,38.7,95.9S193.1,200.9,193,147.9z"/>
	<ellipse transform="matrix(1 -2.559087e-03 2.559087e-03 1 -0.4908 0.3961)" class="st5" cx="154.5" cy="192" rx="30.6" ry="52"/>
	<ellipse class="st7" cx="153.5" cy="96.4" rx="47.5" ry="4.5"/>
	<g id="hand-right">
		<path class="st2" d="M273.9,184.5l-46.7-46.9c-2.5-2.5-2.5-6.7,0-9.2l1-1c2.5-2.5,6.7-2.5,9.2,0l46.7,46.9c2.5,2.5,2.5,6.7,0,9.2
			l-1,1C280.5,187,276.4,187,273.9,184.5z"/>
		<path class="st2" d="M274.9,183.5L190,98.1c-2.5-2.5-2.5-6.7,0-9.2l0,0c2.5-2.5,6.7-2.5,9.2,0l84.9,85.4c2.5,2.5,2.5,6.7,0,9.2v0
			C281.6,186,277.4,186,274.9,183.5z"/>
		<rect x="238.5" y="155.2" transform="matrix(0.7051 0.7091 -0.7091 0.7051 192.4443 -137.9654)" width="47.2" height="14.5"/>
		<path d="M262.7,147.9c-11.9-12-19.9-31.6-20.2-32.5c-0.4-1,0.1-2.1,1.1-2.5c1-0.4,2.1,0.1,2.5,1.1c0.1,0.2,8,19.7,19.4,31.2
			c11.3,11.4,37.6,17.8,37.8,17.9c1,0.2,1.6,1.3,1.4,2.3c-0.2,1-1.3,1.6-2.3,1.4C301.2,166.5,274.7,160,262.7,147.9z"/>
		<ellipse transform="matrix(0.7091 -0.7051 0.7051 0.7091 -28.2267 261.4503)" cx="302.7" cy="164.9" rx="3.8" ry="3.8"/>
		<polygon points="236.6,126.5 243.7,113.1 252.2,130.3 236,146.4 225.8,136.2 		"/>
		<circle class="st8" cx="199" cy="97.9" r="12"/>
		<circle class="st9" cx="199" cy="97.9" r="8"/>
		<circle class="st7" cx="199" cy="97.9" r="6"/>
	</g>
	<g id="hand-left">
		<path class="st2" d="M32.7,184.5l46.7-46.9c2.5-2.5,2.5-6.7,0-9.2l-1-1c-2.5-2.5-6.7-2.5-9.2,0l-46.7,46.9c-2.5,2.5-2.5,6.7,0,9.2
			l1,1C26,187,30.2,187,32.7,184.5z"/>
		<path class="st2" d="M31.6,183.5l84.9-85.4c2.5-2.5,2.5-6.7,0-9.2l0,0c-2.5-2.5-6.7-2.5-9.2,0l-84.9,85.4c-2.5,2.5-2.5,6.7,0,9.2
			l0,0C25,186,29.1,186,31.6,183.5z"/>
		<rect x="20.8" y="155.2" transform="matrix(-0.7051 0.7091 -0.7091 -0.7051 190.951 245.3835)" width="47.2" height="14.5"/>
		<path d="M43.9,147.9c11.9-12,19.9-31.6,20.2-32.5c0.4-1-0.1-2.1-1.1-2.5c-1-0.4-2.1,0.1-2.5,1.1c-0.1,0.2-8,19.7-19.4,31.2
			C29.9,156.5,3.6,163,3.4,163.1c-1,0.2-1.6,1.3-1.4,2.3c0.2,1,1.3,1.6,2.3,1.4C5.4,166.5,31.8,160,43.9,147.9z"/>
		<ellipse transform="matrix(0.7051 -0.7091 0.7091 0.7051 -115.831 51.3365)" cx="3.8" cy="164.9" rx="3.8" ry="3.8"/>
		<polygon points="69.9,126.5 62.9,113.1 54.3,130.3 70.5,146.4 80.7,136.2 		"/>
		<circle class="st8" cx="107.6" cy="97.9" r="12"/>
		<circle class="st9" cx="107.6" cy="97.9" r="8"/>
		<circle class="st7" cx="107.6" cy="97.9" r="6"/>
	</g>
	<path class="st5" d="M85.1,161.2C84.9,101.5,115.9,53.1,154.3,53s69.6,48.2,69.8,107.8c0,5.8-0.3,11.6-0.8,17.1
		c11.8-17.9,18.8-40.6,18.7-65.2C241.8,54.8,202.5,7.9,154.2,8c-48.3,0.1-87.4,47.2-87.2,105.2c0.1,24.6,7.2,47.2,19,65.1
		C85.4,172.7,85.1,167,85.1,161.2z"/>
</g>
<path class="st7" d="M154.7,86.8c26.3,0,50.3,7.6,68.3,20.1c-0.8-1.9-1.9-3.6-3.4-5.1L166,4.8c-6.2-6.3-16.3-6.3-22.5,0l-53.6,97
	c-1.5,1.5-2.6,3.3-3.4,5.1C104.4,94.4,128.4,86.8,154.7,86.8z"/>
</svg>
